<mxfile host="app.diagrams.net" modified="2021-05-23T08:04:31.089Z" agent="5.0 (Windows NT 10.0; Win64; x64) AppleWebKit/537.36 (KHTML, like Gecko) Chrome/90.0.4430.212 Safari/537.36" etag="-mR_6L86w2dBoVbAcBvA" version="14.6.13" type="github">
  <diagram id="C5RBs43oDa-KdzZeNtuy" name="Page-1">
    <mxGraphModel dx="2454" dy="2149" grid="1" gridSize="10" guides="1" tooltips="1" connect="1" arrows="1" fold="1" page="1" pageScale="1" pageWidth="827" pageHeight="1169" math="0" shadow="0">
      <root>
        <mxCell id="WIyWlLk6GJQsqaUBKTNV-0" />
        <mxCell id="WIyWlLk6GJQsqaUBKTNV-1" parent="WIyWlLk6GJQsqaUBKTNV-0" />
        <mxCell id="mLjvoEHw3uMdFO4_nmo_-219" value="" style="group;fontColor=#333333;dashed=1;" parent="WIyWlLk6GJQsqaUBKTNV-1" vertex="1" connectable="0">
          <mxGeometry x="560" y="-50" width="560" height="710" as="geometry" />
        </mxCell>
        <mxCell id="mLjvoEHw3uMdFO4_nmo_-146" value="" style="rounded=1;whiteSpace=wrap;html=1;arcSize=3;fontStyle=1" parent="mLjvoEHw3uMdFO4_nmo_-219" vertex="1">
          <mxGeometry width="560" height="710" as="geometry" />
        </mxCell>
        <mxCell id="mLjvoEHw3uMdFO4_nmo_-148" value="&lt;b style=&quot;color: rgb(32 , 33 , 36) ; text-align: left&quot;&gt;&lt;font style=&quot;font-size: 12px&quot;&gt;Pearson&#39;s correlation coefficient&lt;/font&gt;&lt;/b&gt;" style="rounded=1;whiteSpace=wrap;html=1;fontSize=12;glass=0;strokeWidth=1;shadow=0;fillColor=#f5f5f5;strokeColor=#666666;fontColor=#333333;" parent="mLjvoEHw3uMdFO4_nmo_-219" vertex="1">
          <mxGeometry x="200" y="140" width="160" height="40" as="geometry" />
        </mxCell>
        <mxCell id="mLjvoEHw3uMdFO4_nmo_-151" value="p-value &amp;lt; 0.05" style="rhombus;whiteSpace=wrap;html=1;shadow=0;fontFamily=Helvetica;fontSize=12;align=center;strokeWidth=1;spacing=6;spacingTop=-4;fillColor=#f8cecc;strokeColor=#b85450;" parent="mLjvoEHw3uMdFO4_nmo_-219" vertex="1">
          <mxGeometry x="230" y="220" width="100" height="80" as="geometry" />
        </mxCell>
        <mxCell id="mLjvoEHw3uMdFO4_nmo_-147" value="" style="rounded=0;html=1;jettySize=auto;orthogonalLoop=1;fontSize=11;endArrow=block;endFill=0;endSize=8;strokeWidth=1;shadow=0;labelBackgroundColor=none;edgeStyle=orthogonalEdgeStyle;" parent="mLjvoEHw3uMdFO4_nmo_-219" source="mLjvoEHw3uMdFO4_nmo_-148" target="mLjvoEHw3uMdFO4_nmo_-151" edge="1">
          <mxGeometry y="40" as="geometry" />
        </mxCell>
        <mxCell id="mLjvoEHw3uMdFO4_nmo_-152" value="Less important metabolites" style="rounded=1;whiteSpace=wrap;html=1;fontSize=12;glass=0;strokeWidth=1;shadow=0;" parent="mLjvoEHw3uMdFO4_nmo_-219" vertex="1">
          <mxGeometry x="380" y="240" width="120" height="40" as="geometry" />
        </mxCell>
        <mxCell id="mLjvoEHw3uMdFO4_nmo_-153" value="" style="rounded=0;html=1;jettySize=auto;orthogonalLoop=1;fontSize=11;endArrow=block;endFill=0;endSize=8;strokeWidth=1;shadow=0;labelBackgroundColor=none;edgeStyle=orthogonalEdgeStyle;" parent="mLjvoEHw3uMdFO4_nmo_-219" source="mLjvoEHw3uMdFO4_nmo_-154" edge="1">
          <mxGeometry y="40" as="geometry">
            <mxPoint x="280" y="140" as="targetPoint" />
          </mxGeometry>
        </mxCell>
        <mxCell id="mLjvoEHw3uMdFO4_nmo_-154" value="&lt;b&gt;&lt;font style=&quot;font-size: 20px&quot;&gt;Dataset&lt;/font&gt;&lt;/b&gt;" style="rounded=1;whiteSpace=wrap;html=1;fontSize=12;glass=0;strokeWidth=1;shadow=0;" parent="mLjvoEHw3uMdFO4_nmo_-219" vertex="1">
          <mxGeometry x="220" y="60" width="120" height="40" as="geometry" />
        </mxCell>
        <mxCell id="mLjvoEHw3uMdFO4_nmo_-155" value="&lt;b&gt;PCA&lt;/b&gt;" style="rounded=1;whiteSpace=wrap;html=1;fontSize=12;glass=0;strokeWidth=1;shadow=0;fillColor=#d5e8d4;strokeColor=#82b366;" parent="mLjvoEHw3uMdFO4_nmo_-219" vertex="1">
          <mxGeometry x="20" y="350" width="130" height="40" as="geometry" />
        </mxCell>
        <mxCell id="mLjvoEHw3uMdFO4_nmo_-157" value="&lt;b&gt;Random Forest Classifier&lt;/b&gt;" style="rounded=1;whiteSpace=wrap;html=1;fontSize=12;glass=0;strokeWidth=1;shadow=0;fillColor=#e1d5e7;strokeColor=#9673a6;" parent="mLjvoEHw3uMdFO4_nmo_-219" vertex="1">
          <mxGeometry x="200" y="600" width="170" height="40" as="geometry" />
        </mxCell>
        <mxCell id="mLjvoEHw3uMdFO4_nmo_-158" value="Important metabolites" style="rounded=1;whiteSpace=wrap;html=1;fontSize=12;glass=0;strokeWidth=1;shadow=0;" parent="mLjvoEHw3uMdFO4_nmo_-219" vertex="1">
          <mxGeometry x="215" y="350" width="130" height="40" as="geometry" />
        </mxCell>
        <mxCell id="mLjvoEHw3uMdFO4_nmo_-149" value="Yes" style="rounded=0;html=1;jettySize=auto;orthogonalLoop=1;fontSize=11;endArrow=block;endFill=0;endSize=8;strokeWidth=1;shadow=0;labelBackgroundColor=none;edgeStyle=orthogonalEdgeStyle;exitX=0.5;exitY=1;exitDx=0;exitDy=0;entryX=0.5;entryY=0;entryDx=0;entryDy=0;" parent="mLjvoEHw3uMdFO4_nmo_-219" source="mLjvoEHw3uMdFO4_nmo_-151" target="mLjvoEHw3uMdFO4_nmo_-158" edge="1">
          <mxGeometry x="-560" y="50" as="geometry">
            <mxPoint x="20" y="5" as="offset" />
            <mxPoint x="180" y="260" as="targetPoint" />
          </mxGeometry>
        </mxCell>
        <mxCell id="mLjvoEHw3uMdFO4_nmo_-159" value="" style="rounded=0;html=1;jettySize=auto;orthogonalLoop=1;fontSize=11;endArrow=block;endFill=0;endSize=8;strokeWidth=1;shadow=0;labelBackgroundColor=none;edgeStyle=orthogonalEdgeStyle;entryX=0.482;entryY=0;entryDx=0;entryDy=0;entryPerimeter=0;" parent="mLjvoEHw3uMdFO4_nmo_-219" edge="1" target="mLjvoEHw3uMdFO4_nmo_-181">
          <mxGeometry y="40" as="geometry">
            <mxPoint x="279.28999999999996" y="390" as="sourcePoint" />
            <mxPoint x="279.28999999999996" y="430" as="targetPoint" />
          </mxGeometry>
        </mxCell>
        <mxCell id="mLjvoEHw3uMdFO4_nmo_-160" value="&lt;b&gt;t-SNE&lt;/b&gt;" style="rounded=1;whiteSpace=wrap;html=1;fontSize=12;glass=0;strokeWidth=1;shadow=0;fillColor=#d5e8d4;strokeColor=#82b366;" parent="mLjvoEHw3uMdFO4_nmo_-219" vertex="1">
          <mxGeometry x="410" y="350" width="120" height="40" as="geometry" />
        </mxCell>
        <mxCell id="mLjvoEHw3uMdFO4_nmo_-161" value="" style="rounded=0;html=1;jettySize=auto;orthogonalLoop=1;fontSize=11;endArrow=block;endFill=0;endSize=8;strokeWidth=1;shadow=0;labelBackgroundColor=none;edgeStyle=orthogonalEdgeStyle;entryX=0;entryY=0.5;entryDx=0;entryDy=0;" parent="mLjvoEHw3uMdFO4_nmo_-219" target="mLjvoEHw3uMdFO4_nmo_-160" edge="1">
          <mxGeometry x="30" y="-40" as="geometry">
            <mxPoint x="340" y="370" as="sourcePoint" />
            <mxPoint x="330" y="410" as="targetPoint" />
            <Array as="points">
              <mxPoint x="340" y="370" />
              <mxPoint x="340" y="370" />
            </Array>
          </mxGeometry>
        </mxCell>
        <mxCell id="mLjvoEHw3uMdFO4_nmo_-162" value="" style="rounded=0;html=1;jettySize=auto;orthogonalLoop=1;fontSize=11;endArrow=block;endFill=0;endSize=8;strokeWidth=1;shadow=0;labelBackgroundColor=none;edgeStyle=orthogonalEdgeStyle;entryX=1;entryY=0.5;entryDx=0;entryDy=0;exitX=0.038;exitY=0.5;exitDx=0;exitDy=0;exitPerimeter=0;" parent="mLjvoEHw3uMdFO4_nmo_-219" target="mLjvoEHw3uMdFO4_nmo_-155" edge="1" source="mLjvoEHw3uMdFO4_nmo_-158">
          <mxGeometry x="-40" y="-40" as="geometry">
            <mxPoint x="210" y="370" as="sourcePoint" />
            <mxPoint x="170" y="369.28999999999996" as="targetPoint" />
          </mxGeometry>
        </mxCell>
        <mxCell id="mLjvoEHw3uMdFO4_nmo_-181" value="" style="ellipse;whiteSpace=wrap;html=1;aspect=fixed;" parent="mLjvoEHw3uMdFO4_nmo_-219" vertex="1">
          <mxGeometry x="260" y="520" width="40" height="40" as="geometry" />
        </mxCell>
        <mxCell id="mLjvoEHw3uMdFO4_nmo_-183" value="No" style="edgeStyle=orthogonalEdgeStyle;rounded=0;html=1;jettySize=auto;orthogonalLoop=1;fontSize=11;endArrow=block;endFill=0;endSize=8;strokeWidth=1;shadow=0;labelBackgroundColor=none;" parent="mLjvoEHw3uMdFO4_nmo_-219" edge="1">
          <mxGeometry x="-560" y="50" as="geometry">
            <mxPoint x="-5" y="-20" as="offset" />
            <mxPoint x="330" y="260" as="sourcePoint" />
            <mxPoint x="380" y="260" as="targetPoint" />
          </mxGeometry>
        </mxCell>
        <mxCell id="mLjvoEHw3uMdFO4_nmo_-184" value="" style="endArrow=block;html=1;exitX=0.5;exitY=1;exitDx=0;exitDy=0;entryX=1;entryY=0.5;entryDx=0;entryDy=0;endFill=0;" parent="mLjvoEHw3uMdFO4_nmo_-219" source="mLjvoEHw3uMdFO4_nmo_-160" target="mLjvoEHw3uMdFO4_nmo_-181" edge="1">
          <mxGeometry width="50" height="50" relative="1" as="geometry">
            <mxPoint x="10" y="400" as="sourcePoint" />
            <mxPoint x="60" y="350" as="targetPoint" />
            <Array as="points">
              <mxPoint x="470" y="540" />
            </Array>
          </mxGeometry>
        </mxCell>
        <mxCell id="mLjvoEHw3uMdFO4_nmo_-185" value="" style="endArrow=block;html=1;exitX=0.5;exitY=1;exitDx=0;exitDy=0;entryX=0;entryY=0.5;entryDx=0;entryDy=0;endFill=0;" parent="mLjvoEHw3uMdFO4_nmo_-219" source="mLjvoEHw3uMdFO4_nmo_-155" target="mLjvoEHw3uMdFO4_nmo_-181" edge="1">
          <mxGeometry width="50" height="50" relative="1" as="geometry">
            <mxPoint x="450" y="480" as="sourcePoint" />
            <mxPoint x="310" y="550" as="targetPoint" />
            <Array as="points">
              <mxPoint x="85" y="540" />
            </Array>
          </mxGeometry>
        </mxCell>
        <mxCell id="mLjvoEHw3uMdFO4_nmo_-186" value="" style="rounded=0;html=1;jettySize=auto;orthogonalLoop=1;fontSize=11;endArrow=block;endFill=0;endSize=8;strokeWidth=1;shadow=0;labelBackgroundColor=none;edgeStyle=orthogonalEdgeStyle;" parent="mLjvoEHw3uMdFO4_nmo_-219" edge="1">
          <mxGeometry x="0.57000000000005" y="210" as="geometry">
            <mxPoint x="279.86" y="560" as="sourcePoint" />
            <mxPoint x="279.86" y="600" as="targetPoint" />
            <Array as="points">
              <mxPoint x="279.57000000000005" y="580" />
              <mxPoint x="279.57000000000005" y="580" />
            </Array>
          </mxGeometry>
        </mxCell>
        <mxCell id="mLjvoEHw3uMdFO4_nmo_-286" value="&lt;font style=&quot;font-size: 22px&quot; color=&quot;#00cc00&quot;&gt;Approach 2&lt;/font&gt;" style="text;html=1;strokeColor=none;fillColor=none;align=center;verticalAlign=middle;whiteSpace=wrap;rounded=0;" parent="mLjvoEHw3uMdFO4_nmo_-219" vertex="1">
          <mxGeometry x="215" y="680" width="140" height="20" as="geometry" />
        </mxCell>
        <mxCell id="mLjvoEHw3uMdFO4_nmo_-251" value="" style="group;" parent="WIyWlLk6GJQsqaUBKTNV-1" vertex="1" connectable="0">
          <mxGeometry x="-50" y="-50" width="560" height="710" as="geometry" />
        </mxCell>
        <mxCell id="mLjvoEHw3uMdFO4_nmo_-252" value="" style="rounded=1;whiteSpace=wrap;html=1;arcSize=3;" parent="mLjvoEHw3uMdFO4_nmo_-251" vertex="1">
          <mxGeometry width="560" height="710" as="geometry" />
        </mxCell>
        <mxCell id="mLjvoEHw3uMdFO4_nmo_-253" value="&lt;b&gt;Shapiro Wilk Test&lt;/b&gt;" style="rounded=1;whiteSpace=wrap;html=1;fontSize=12;glass=0;strokeWidth=1;shadow=0;fillColor=#f5f5f5;strokeColor=#666666;fontColor=#333333;" parent="mLjvoEHw3uMdFO4_nmo_-251" vertex="1">
          <mxGeometry x="220" y="100" width="120" height="40" as="geometry" />
        </mxCell>
        <mxCell id="mLjvoEHw3uMdFO4_nmo_-254" value="Yes" style="rounded=0;html=1;jettySize=auto;orthogonalLoop=1;fontSize=11;endArrow=block;endFill=0;endSize=8;strokeWidth=1;shadow=0;labelBackgroundColor=none;edgeStyle=orthogonalEdgeStyle;exitX=0;exitY=0.5;exitDx=0;exitDy=0;fontStyle=0" parent="mLjvoEHw3uMdFO4_nmo_-251" source="mLjvoEHw3uMdFO4_nmo_-255" edge="1">
          <mxGeometry y="-10" relative="1" as="geometry">
            <mxPoint as="offset" />
            <mxPoint x="180" y="220" as="targetPoint" />
          </mxGeometry>
        </mxCell>
        <mxCell id="mLjvoEHw3uMdFO4_nmo_-255" value="Normally Distributed?" style="rhombus;whiteSpace=wrap;html=1;shadow=0;fontFamily=Helvetica;fontSize=12;align=center;strokeWidth=1;spacing=6;spacingTop=-4;fillColor=#f8cecc;strokeColor=#b85450;" parent="mLjvoEHw3uMdFO4_nmo_-251" vertex="1">
          <mxGeometry x="230" y="180" width="100" height="80" as="geometry" />
        </mxCell>
        <mxCell id="mLjvoEHw3uMdFO4_nmo_-256" value="" style="rounded=0;html=1;jettySize=auto;orthogonalLoop=1;fontSize=11;endArrow=block;endFill=0;endSize=8;strokeWidth=1;shadow=0;labelBackgroundColor=none;edgeStyle=orthogonalEdgeStyle;" parent="mLjvoEHw3uMdFO4_nmo_-251" source="mLjvoEHw3uMdFO4_nmo_-253" target="mLjvoEHw3uMdFO4_nmo_-255" edge="1">
          <mxGeometry relative="1" as="geometry" />
        </mxCell>
        <mxCell id="mLjvoEHw3uMdFO4_nmo_-257" value="&lt;b&gt;Levene&#39;s Test&lt;/b&gt;" style="rounded=1;whiteSpace=wrap;html=1;fontSize=12;glass=0;strokeWidth=1;shadow=0;fillColor=#fff2cc;strokeColor=#d6b656;" parent="mLjvoEHw3uMdFO4_nmo_-251" vertex="1">
          <mxGeometry x="380" y="200" width="120" height="40" as="geometry" />
        </mxCell>
        <mxCell id="mLjvoEHw3uMdFO4_nmo_-258" value="No" style="edgeStyle=orthogonalEdgeStyle;rounded=0;html=1;jettySize=auto;orthogonalLoop=1;fontSize=11;endArrow=block;endFill=0;strokeWidth=1;shadow=0;labelBackgroundColor=none;fontStyle=0" parent="mLjvoEHw3uMdFO4_nmo_-251" source="mLjvoEHw3uMdFO4_nmo_-255" target="mLjvoEHw3uMdFO4_nmo_-257" edge="1">
          <mxGeometry y="10" relative="1" as="geometry">
            <mxPoint as="offset" />
          </mxGeometry>
        </mxCell>
        <mxCell id="mLjvoEHw3uMdFO4_nmo_-259" value="" style="rounded=0;html=1;jettySize=auto;orthogonalLoop=1;fontSize=11;endArrow=block;endFill=0;endSize=8;strokeWidth=1;shadow=0;labelBackgroundColor=none;edgeStyle=orthogonalEdgeStyle;" parent="mLjvoEHw3uMdFO4_nmo_-251" source="mLjvoEHw3uMdFO4_nmo_-260" edge="1">
          <mxGeometry relative="1" as="geometry">
            <mxPoint x="280" y="100" as="targetPoint" />
          </mxGeometry>
        </mxCell>
        <mxCell id="mLjvoEHw3uMdFO4_nmo_-260" value="&lt;b&gt;&lt;font style=&quot;font-size: 20px&quot;&gt;Dataset&lt;/font&gt;&lt;/b&gt;" style="rounded=1;whiteSpace=wrap;html=1;fontSize=12;glass=0;strokeWidth=1;shadow=0;" parent="mLjvoEHw3uMdFO4_nmo_-251" vertex="1">
          <mxGeometry x="220" y="20" width="120" height="40" as="geometry" />
        </mxCell>
        <mxCell id="mLjvoEHw3uMdFO4_nmo_-261" value="&lt;b&gt;Bartlett&#39;s Test&lt;/b&gt;" style="rounded=1;whiteSpace=wrap;html=1;fontSize=12;glass=0;strokeWidth=1;shadow=0;fillColor=#fff2cc;strokeColor=#d6b656;" parent="mLjvoEHw3uMdFO4_nmo_-251" vertex="1">
          <mxGeometry x="60" y="200" width="120" height="40" as="geometry" />
        </mxCell>
        <mxCell id="mLjvoEHw3uMdFO4_nmo_-262" value="Equal Variances?" style="rhombus;whiteSpace=wrap;html=1;shadow=0;fontFamily=Helvetica;fontSize=12;align=center;strokeWidth=1;spacing=6;spacingTop=-4;fillColor=#f8cecc;strokeColor=#b85450;" parent="mLjvoEHw3uMdFO4_nmo_-251" vertex="1">
          <mxGeometry x="230" y="360" width="100" height="80" as="geometry" />
        </mxCell>
        <mxCell id="mLjvoEHw3uMdFO4_nmo_-263" value="Yes" style="rounded=0;html=1;jettySize=auto;orthogonalLoop=1;fontSize=11;endArrow=block;endFill=0;endSize=8;strokeWidth=1;shadow=0;labelBackgroundColor=none;edgeStyle=orthogonalEdgeStyle;exitX=0;exitY=0.5;exitDx=0;exitDy=0;" parent="mLjvoEHw3uMdFO4_nmo_-251" edge="1">
          <mxGeometry y="-10" relative="1" as="geometry">
            <mxPoint as="offset" />
            <mxPoint x="230" y="400" as="sourcePoint" />
            <mxPoint x="180" y="400" as="targetPoint" />
          </mxGeometry>
        </mxCell>
        <mxCell id="mLjvoEHw3uMdFO4_nmo_-264" value="No" style="edgeStyle=orthogonalEdgeStyle;rounded=0;html=1;jettySize=auto;orthogonalLoop=1;fontSize=11;endArrow=block;endFill=0;endSize=8;strokeWidth=1;shadow=0;labelBackgroundColor=none;" parent="mLjvoEHw3uMdFO4_nmo_-251" target="mLjvoEHw3uMdFO4_nmo_-265" edge="1">
          <mxGeometry y="10" relative="1" as="geometry">
            <mxPoint as="offset" />
            <mxPoint x="330" y="400" as="sourcePoint" />
          </mxGeometry>
        </mxCell>
        <mxCell id="mLjvoEHw3uMdFO4_nmo_-265" value="&lt;b&gt;Kruskal Wallis Test&lt;/b&gt;" style="rounded=1;whiteSpace=wrap;html=1;fontSize=12;glass=0;strokeWidth=1;shadow=0;fillColor=#dae8fc;strokeColor=#6c8ebf;" parent="mLjvoEHw3uMdFO4_nmo_-251" vertex="1">
          <mxGeometry x="380" y="380" width="120" height="40" as="geometry" />
        </mxCell>
        <mxCell id="mLjvoEHw3uMdFO4_nmo_-266" value="&lt;b&gt;Student&#39;s t-Test&lt;/b&gt;" style="rounded=1;whiteSpace=wrap;html=1;fontSize=12;glass=0;strokeWidth=1;shadow=0;fillColor=#dae8fc;strokeColor=#6c8ebf;" parent="mLjvoEHw3uMdFO4_nmo_-251" vertex="1">
          <mxGeometry x="60" y="380" width="120" height="40" as="geometry" />
        </mxCell>
        <mxCell id="mLjvoEHw3uMdFO4_nmo_-267" value="" style="ellipse;whiteSpace=wrap;html=1;aspect=fixed;" parent="mLjvoEHw3uMdFO4_nmo_-251" vertex="1">
          <mxGeometry x="260" y="280" width="40" height="40" as="geometry" />
        </mxCell>
        <mxCell id="mLjvoEHw3uMdFO4_nmo_-268" value="" style="endArrow=blockThin;html=1;exitX=0.5;exitY=1;exitDx=0;exitDy=0;entryX=0;entryY=0.5;entryDx=0;entryDy=0;endFill=0;" parent="mLjvoEHw3uMdFO4_nmo_-251" source="mLjvoEHw3uMdFO4_nmo_-261" target="mLjvoEHw3uMdFO4_nmo_-267" edge="1">
          <mxGeometry width="50" height="50" relative="1" as="geometry">
            <mxPoint x="360" y="330" as="sourcePoint" />
            <mxPoint x="410" y="280" as="targetPoint" />
            <Array as="points">
              <mxPoint x="120" y="300" />
            </Array>
          </mxGeometry>
        </mxCell>
        <mxCell id="mLjvoEHw3uMdFO4_nmo_-269" value="" style="endArrow=blockThin;html=1;exitX=0.5;exitY=1;exitDx=0;exitDy=0;entryX=1;entryY=0.5;entryDx=0;entryDy=0;startArrow=none;startFill=0;endFill=0;" parent="mLjvoEHw3uMdFO4_nmo_-251" source="mLjvoEHw3uMdFO4_nmo_-257" target="mLjvoEHw3uMdFO4_nmo_-267" edge="1">
          <mxGeometry width="50" height="50" relative="1" as="geometry">
            <mxPoint x="360" y="330" as="sourcePoint" />
            <mxPoint x="410" y="280" as="targetPoint" />
            <Array as="points">
              <mxPoint x="440" y="300" />
            </Array>
          </mxGeometry>
        </mxCell>
        <mxCell id="mLjvoEHw3uMdFO4_nmo_-270" value="" style="ellipse;whiteSpace=wrap;html=1;aspect=fixed;" parent="mLjvoEHw3uMdFO4_nmo_-251" vertex="1">
          <mxGeometry x="260" y="460" width="40" height="40" as="geometry" />
        </mxCell>
        <mxCell id="mLjvoEHw3uMdFO4_nmo_-271" value="" style="endArrow=block;html=1;exitX=0.5;exitY=1;exitDx=0;exitDy=0;entryX=0;entryY=0.5;entryDx=0;entryDy=0;endFill=0;" parent="mLjvoEHw3uMdFO4_nmo_-251" target="mLjvoEHw3uMdFO4_nmo_-270" edge="1">
          <mxGeometry width="50" height="50" relative="1" as="geometry">
            <mxPoint x="120" y="420" as="sourcePoint" />
            <mxPoint x="410" y="460" as="targetPoint" />
            <Array as="points">
              <mxPoint x="120" y="480" />
            </Array>
          </mxGeometry>
        </mxCell>
        <mxCell id="mLjvoEHw3uMdFO4_nmo_-272" value="" style="endArrow=block;html=1;exitX=0.5;exitY=1;exitDx=0;exitDy=0;entryX=1;entryY=0.5;entryDx=0;entryDy=0;endFill=0;" parent="mLjvoEHw3uMdFO4_nmo_-251" target="mLjvoEHw3uMdFO4_nmo_-270" edge="1">
          <mxGeometry width="50" height="50" relative="1" as="geometry">
            <mxPoint x="440" y="420" as="sourcePoint" />
            <mxPoint x="410" y="460" as="targetPoint" />
            <Array as="points">
              <mxPoint x="440" y="480" />
            </Array>
          </mxGeometry>
        </mxCell>
        <mxCell id="mLjvoEHw3uMdFO4_nmo_-273" value="" style="rounded=0;html=1;jettySize=auto;orthogonalLoop=1;fontSize=11;endArrow=block;endFill=0;endSize=8;strokeWidth=1;shadow=0;labelBackgroundColor=none;edgeStyle=orthogonalEdgeStyle;" parent="mLjvoEHw3uMdFO4_nmo_-251" edge="1">
          <mxGeometry relative="1" as="geometry">
            <mxPoint x="279.5" y="320" as="sourcePoint" />
            <mxPoint x="279.5" y="360" as="targetPoint" />
            <Array as="points">
              <mxPoint x="279.5" y="340" />
              <mxPoint x="279.5" y="340" />
            </Array>
          </mxGeometry>
        </mxCell>
        <mxCell id="mLjvoEHw3uMdFO4_nmo_-274" value="" style="rounded=0;html=1;jettySize=auto;orthogonalLoop=1;fontSize=11;endArrow=block;endFill=0;endSize=8;strokeWidth=1;shadow=0;labelBackgroundColor=none;edgeStyle=orthogonalEdgeStyle;" parent="mLjvoEHw3uMdFO4_nmo_-251" edge="1">
          <mxGeometry relative="1" as="geometry">
            <mxPoint x="279.5" y="500" as="sourcePoint" />
            <mxPoint x="279.5" y="540" as="targetPoint" />
            <Array as="points">
              <mxPoint x="279.5" y="520" />
              <mxPoint x="279.5" y="520" />
            </Array>
          </mxGeometry>
        </mxCell>
        <mxCell id="mLjvoEHw3uMdFO4_nmo_-275" value="p-value &amp;lt; 0.01?" style="rhombus;whiteSpace=wrap;html=1;shadow=0;fontFamily=Helvetica;fontSize=12;align=center;strokeWidth=1;spacing=6;spacingTop=-4;fillColor=#f8cecc;strokeColor=#b85450;" parent="mLjvoEHw3uMdFO4_nmo_-251" vertex="1">
          <mxGeometry x="230" y="540" width="100" height="80" as="geometry" />
        </mxCell>
        <mxCell id="mLjvoEHw3uMdFO4_nmo_-276" value="Yes" style="rounded=0;html=1;jettySize=auto;orthogonalLoop=1;fontSize=11;endArrow=block;endFill=0;endSize=8;strokeWidth=1;shadow=0;labelBackgroundColor=none;edgeStyle=orthogonalEdgeStyle;exitX=0;exitY=0.5;exitDx=0;exitDy=0;" parent="mLjvoEHw3uMdFO4_nmo_-251" edge="1">
          <mxGeometry y="-10" relative="1" as="geometry">
            <mxPoint as="offset" />
            <mxPoint x="230" y="580" as="sourcePoint" />
            <mxPoint x="180" y="580" as="targetPoint" />
          </mxGeometry>
        </mxCell>
        <mxCell id="mLjvoEHw3uMdFO4_nmo_-277" value="No" style="edgeStyle=orthogonalEdgeStyle;rounded=0;html=1;jettySize=auto;orthogonalLoop=1;fontSize=11;endArrow=block;endFill=0;endSize=8;strokeWidth=1;shadow=0;labelBackgroundColor=none;" parent="mLjvoEHw3uMdFO4_nmo_-251" target="mLjvoEHw3uMdFO4_nmo_-278" edge="1">
          <mxGeometry y="10" relative="1" as="geometry">
            <mxPoint as="offset" />
            <mxPoint x="330" y="580" as="sourcePoint" />
          </mxGeometry>
        </mxCell>
        <mxCell id="mLjvoEHw3uMdFO4_nmo_-278" value="Less important metabolites" style="rounded=1;whiteSpace=wrap;html=1;fontSize=12;glass=0;strokeWidth=1;shadow=0;" parent="mLjvoEHw3uMdFO4_nmo_-251" vertex="1">
          <mxGeometry x="380" y="560" width="130" height="40" as="geometry" />
        </mxCell>
        <mxCell id="mLjvoEHw3uMdFO4_nmo_-279" value="Important metabolites" style="rounded=1;whiteSpace=wrap;html=1;fontSize=12;glass=0;strokeWidth=1;shadow=0;" parent="mLjvoEHw3uMdFO4_nmo_-251" vertex="1">
          <mxGeometry x="50" y="560" width="130" height="40" as="geometry" />
        </mxCell>
        <mxCell id="mLjvoEHw3uMdFO4_nmo_-280" value="" style="rounded=0;html=1;jettySize=auto;orthogonalLoop=1;fontSize=11;endArrow=block;endFill=0;endSize=8;strokeWidth=1;shadow=0;labelBackgroundColor=none;edgeStyle=orthogonalEdgeStyle;" parent="mLjvoEHw3uMdFO4_nmo_-251" edge="1">
          <mxGeometry relative="1" as="geometry">
            <mxPoint x="114.28999999999999" y="600" as="sourcePoint" />
            <mxPoint x="114.28999999999999" y="640" as="targetPoint" />
            <Array as="points">
              <mxPoint x="114.28999999999999" y="620" />
              <mxPoint x="114.28999999999999" y="620" />
            </Array>
          </mxGeometry>
        </mxCell>
        <mxCell id="mLjvoEHw3uMdFO4_nmo_-281" value="&lt;b&gt;Ridge Classifier&lt;/b&gt;" style="rounded=1;whiteSpace=wrap;html=1;fontSize=12;glass=0;strokeWidth=1;shadow=0;fillColor=#e1d5e7;strokeColor=#9673a6;" parent="mLjvoEHw3uMdFO4_nmo_-251" vertex="1">
          <mxGeometry x="55" y="640" width="120" height="40" as="geometry" />
        </mxCell>
        <mxCell id="mLjvoEHw3uMdFO4_nmo_-285" value="&lt;font style=&quot;font-size: 22px&quot; color=&quot;#007fff&quot;&gt;Approach 1&lt;/font&gt;" style="text;html=1;strokeColor=none;fillColor=none;align=center;verticalAlign=middle;whiteSpace=wrap;rounded=0;" parent="mLjvoEHw3uMdFO4_nmo_-251" vertex="1">
          <mxGeometry x="210" y="680" width="140" height="20" as="geometry" />
        </mxCell>
      </root>
    </mxGraphModel>
  </diagram>
</mxfile>
